<?xml version="1.0" encoding="UTF-8"?><svg id="a" xmlns="http://www.w3.org/2000/svg" viewBox="0 0 169.49 87.63"><defs><style>.b{fill:#b89b94;}.c{fill:#2d2927;}</style></defs><g><path class="c" d="M37,7.85l-.59,3.69-.89,4.98c0,.14-.12,.2-.37,.2-.1,0-.21-.03-.33-.1-.12-.07-.18-.12-.18-.17,.2-2.41-.32-4.36-1.55-5.84-1.23-1.48-2.98-2.22-5.24-2.22h-4.58c-1.53,0-2.65,.11-3.36,.34-.71,.23-1.24,.64-1.59,1.23-.35,.59-.64,1.55-.89,2.87l-2.66,14.06h9.75c2.02,0,3.54-.36,4.58-1.09,1.03-.73,1.72-2,2.07-3.82,0-.14,.15-.2,.44-.2,.1,0,.21,.03,.33,.1,.12,.07,.16,.15,.11,.24-.15,1-.37,2.05-.66,3.14-.2,.68-.37,1.5-.52,2.46l-.37,2.12c-.15,1.41-.39,2.89-.74,4.44-.05,.18-.22,.26-.52,.24-.3-.02-.42-.12-.37-.31,.15-.68,.22-1.3,.22-1.84,0-1.36-.42-2.35-1.26-2.97-.84-.61-2.12-.92-3.84-.92H14.47l-3.03,15.63c-.15,.82-.22,1.5-.22,2.05,0,.96,.31,1.6,.92,1.95,.62,.34,1.76,.51,3.43,.51h6.13c2.17,0,4.28-.83,6.35-2.49,2.07-1.66,3.74-3.86,5.02-6.59,.1-.14,.28-.18,.55-.14,.27,.05,.36,.14,.26,.27-.89,2.64-1.67,5.71-2.36,9.22-.1,.41-.22,.68-.37,.82-.15,.14-.42,.2-.81,.2H.15c-.1,0-.15-.14-.15-.41s.05-.41,.15-.41c1.53,0,2.66-.11,3.4-.34,.74-.23,1.29-.66,1.66-1.3,.37-.64,.7-1.66,1-3.07L12.19,12.77c.2-.77,.3-1.52,.3-2.25,0-.96-.32-1.6-.96-1.95-.64-.34-1.8-.51-3.47-.51-.15,0-.22-.14-.22-.41s.07-.41,.22-.41h28.51c.39,0,.54,.2,.44,.61Z"/><path class="c" d="M41.87,49.7c-.49-.55-.74-1.39-.74-2.53,0-.87,.15-1.98,.44-3.34l7.09-35.56c.15-.68,.22-1.25,.22-1.71,0-1.18-.49-1.77-1.48-1.77-.79,0-1.92,.34-3.4,1.02h-.07c-.25,0-.41-.12-.48-.38-.07-.25-.01-.4,.18-.44L53.84,.41h.15c.2,0,.37,.07,.52,.2,.15,.14,.2,.25,.15,.34l-8.49,42.87c-.15,.68-.22,1.27-.22,1.77,0,1.32,.44,1.98,1.33,1.98,.49,0,1.11-.25,1.85-.75,.74-.5,1.65-1.23,2.73-2.18,.1-.09,.2-.14,.3-.14,.15,0,.27,.08,.37,.24,.1,.16,.07,.31-.07,.44-1.67,1.82-3.16,3.16-4.47,4.03-1.31,.86-2.6,1.3-3.88,1.3-.99,0-1.72-.27-2.22-.82Z"/><path class="c" d="M59.41,47.95c-1.65-1.93-2.47-4.45-2.47-7.54,0-1,.12-2.23,.37-3.69,.54-2.68,1.59-5.1,3.14-7.24,1.55-2.14,3.43-3.81,5.65-5.02,2.22-1.21,4.55-1.81,7.02-1.81,3.15,0,5.58,.95,7.27,2.83,1.7,1.89,2.55,4.38,2.55,7.47,0,1.18-.15,2.43-.44,3.75-.64,2.87-1.79,5.37-3.43,7.51-1.65,2.14-3.58,3.78-5.8,4.91-2.22,1.14-4.48,1.71-6.8,1.71-3.05,0-5.4-.97-7.05-2.9Zm14.77-1.33c1.5-1.68,2.55-3.98,3.14-6.89,.3-1.46,.44-2.89,.44-4.3,0-3.09-.6-5.72-1.81-7.88-1.21-2.16-2.92-3.24-5.13-3.24-1.87,0-3.57,.84-5.1,2.53-1.53,1.68-2.59,4.01-3.18,6.96-.35,1.73-.52,3.25-.52,4.57,0,3.05,.63,5.61,1.88,7.68,1.26,2.07,2.97,3.11,5.13,3.11,1.92,0,3.63-.84,5.13-2.53Z"/><path class="c" d="M109.15,23.96c.93,.68,1.4,1.48,1.4,2.39,0,.68-.26,1.29-.78,1.81-.52,.52-1.17,.79-1.96,.79-.54,0-.99-.1-1.33-.31-.35-.2-.71-.51-1.11-.92-.25-.23-.51-.44-.78-.65-.27-.2-.58-.31-.92-.31-.99,0-2.18,1.29-3.58,3.86-1.4,2.57-2.73,5.64-3.99,9.21-1.25,3.57-2.18,6.72-2.77,9.46-.1,.36-.39,.65-.89,.85-.49,.2-1.16,.31-1.99,.31-1.28,0-1.92-.16-1.92-.48,.05-.27,.21-.98,.48-2.12,.27-1.14,.48-2.14,.63-3l2.66-13.45c.2-1.05,.3-2,.3-2.87,0-1.82-.54-2.73-1.63-2.73s-2.49,.87-4.36,2.59c-.05,.05-.12,.07-.22,.07-.15,0-.27-.08-.37-.24-.1-.16-.1-.28,0-.38,1.58-1.68,3.03-2.92,4.36-3.72,1.33-.8,2.63-1.19,3.91-1.19,1.03,0,1.8,.3,2.29,.89,.49,.59,.74,1.59,.74,3,0,1.09-.15,2.5-.44,4.23l-1.55,7.99c1.57-4.69,3.31-8.54,5.21-11.57,1.89-3.03,3.78-4.54,5.65-4.54,1.03,0,2.02,.34,2.95,1.02Z"/><path class="c" d="M138.98,44.57c.15,0,.27,.08,.37,.24,.1,.16,.1,.29,0,.38-1.63,1.77-3.1,3.11-4.43,3.99-1.33,.89-2.61,1.33-3.84,1.33-.99,0-1.71-.27-2.18-.82-.47-.55-.7-1.41-.7-2.6,0-.73,.12-1.82,.37-3.28l1.18-6.49c-2.12,4.14-4.56,7.42-7.31,9.83-2.76,2.41-5.44,3.62-8.05,3.62-1.48,0-2.62-.42-3.43-1.26-.81-.84-1.22-2.13-1.22-3.86,0-.41,.05-1.07,.15-1.98,.49-3.14,1.81-6.36,3.95-9.66,2.14-3.3,4.66-6.02,7.57-8.16,2.91-2.14,5.64-3.21,8.2-3.21,2.07,0,3.74,.61,5.02,1.84,.93-.73,1.57-1.52,1.92-2.39,.1-.09,.2-.14,.29-.14,.15,0,.3,.03,.44,.1,.15,.07,.2,.13,.15,.17l-4.28,21.57c-.15,.68-.22,1.3-.22,1.84,0,1.27,.42,1.91,1.25,1.91,1.04,0,2.56-.98,4.58-2.94,.05-.05,.12-.07,.22-.07Zm-15.99-.07c1.85-1.59,3.49-3.59,4.95-6.01,1.45-2.41,2.43-4.73,2.92-6.96,.15-.64,.22-1.25,.22-1.84,0-1.32-.37-2.37-1.11-3.14-.74-.77-1.8-1.16-3.18-1.16-1.67,0-3.35,.63-5.02,1.88-1.67,1.25-3.13,2.97-4.36,5.15-1.23,2.18-2.07,4.64-2.51,7.37-.2,1.46-.3,2.41-.3,2.87,0,2.82,1.03,4.23,3.1,4.23,1.67,0,3.43-.8,5.28-2.39Z"/><path class="c" d="M164.09,23.52c.93,.57,1.4,1.33,1.4,2.29,0,2.14-1.69,4.08-5.06,5.84-3.37,1.75-7.45,3.02-12.22,3.79-.2,1.09-.29,2.28-.29,3.55,0,2.78,.65,5.01,1.96,6.69,1.3,1.68,3.21,2.53,5.72,2.53,2.71,0,5.1-.75,7.16-2.25h.07c.15,0,.28,.07,.41,.2s.14,.27,.04,.41c-3.5,2.78-7.16,4.16-11,4.16-3.25,0-5.69-.93-7.31-2.8-1.62-1.86-2.44-4.28-2.44-7.24,0-1,.12-2.14,.37-3.41,.49-2.36,1.56-4.68,3.21-6.93,1.65-2.25,3.7-4.1,6.17-5.53,2.46-1.43,5.07-2.15,7.83-2.15,1.72,0,3.05,.29,3.99,.85Zm-4.28,3.38c0-.77-.31-1.36-.92-1.77-.62-.41-1.37-.61-2.25-.61-2.02,0-3.74,.92-5.17,2.76-1.43,1.84-2.46,4.24-3.1,7.2,6.79-1.18,10.56-3.41,11.3-6.69,.1-.45,.15-.75,.15-.89ZM165.68,.34c1.11-.23,2.08-.34,2.92-.34,.64,0,.93,.09,.89,.27l-11.3,17.34c-.05,.14-.21,.16-.48,.07-.27-.09-.36-.18-.26-.27l6.42-16.38c.1-.23,.7-.45,1.81-.68Z"/></g><g><path class="c" d="M65.59,78.83c0,.06-.01,.08-.04,.08-.41,0-.71,.11-.91,.34s-.29,.58-.29,1.06v7.25s-.03,.05-.08,.06-.08,0-.1-.01l-6.98-7.73-.04-.06v6.02c0,.48,.09,.83,.28,1.05s.48,.33,.88,.33c.03,0,.05,.03,.05,.08s-.02,.08-.05,.08c-.24,0-.43,0-.57-.01h-1.56c-.15,0-.36,.01-.64,.01-.02,0-.03-.03-.03-.08s0-.08,.03-.08c.43,0,.74-.11,.94-.33,.19-.22,.29-.57,.29-1.05v-6.38c-.41-.37-.82-.55-1.24-.55-.03,0-.04-.03-.04-.08s.01-.08,.04-.08h.55c.12,.02,.29,.03,.51,.03h.7c.08-.02,.18-.03,.31-.03,.08,0,.14,.02,.17,.05,.04,.03,.09,.1,.17,.21,.12,.17,.24,.32,.36,.46l5.66,6.34v-5.5c0-.48-.09-.83-.27-1.06s-.47-.34-.88-.34c-.02,0-.03-.03-.03-.08s0-.08,.03-.08h.58c.32,.03,.57,.04,.76,.04s.44,0,.76-.03h.61s.04,.01,.04,.07Z"/><path class="c" d="M80.93,87.32c0,.06-.02,.08-.06,.08-.19,0-.48,0-.88-.03-.4-.02-.69-.03-.88-.03-.23,0-.51,0-.85,.03-.32,.02-.57,.03-.75,.03-.04,0-.06-.03-.06-.08s.02-.08,.06-.08c.36,0,.62-.03,.77-.09,.15-.06,.23-.17,.23-.33,0-.14-.07-.35-.21-.62l-1.29-2.49h-3.58l-.88,1.9c-.13,.28-.19,.53-.19,.76,0,.58,.48,.87,1.45,.87,.05,0,.08,.03,.08,.08s-.03,.08-.08,.08c-.18,0-.44,0-.78-.03-.38-.02-.71-.03-.99-.03-.25,0-.55,0-.91,.03-.3,.02-.55,.03-.76,.03-.05,0-.08-.03-.08-.08s.03-.08,.08-.08c.28,0,.52-.05,.71-.15,.19-.1,.38-.27,.56-.52,.18-.25,.38-.61,.6-1.09l3.16-6.84s.06-.04,.12-.04,.09,.01,.1,.04l3.57,6.87c.34,.67,.63,1.13,.87,1.37,.24,.24,.51,.36,.82,.36,.04,0,.06,.03,.06,.08Zm-7.37-3.9h3.29l-1.74-3.35-1.56,3.35Z"/><path class="c" d="M88.54,86.9c.06,.13,.17,.22,.34,.26,.17,.05,.44,.07,.81,.07,.02,0,.03,.03,.03,.08s-.01,.08-.03,.08c-.31,0-.55,0-.73-.01h-2.11c-.19,0-.44,.01-.76,.01-.03,0-.05-.03-.05-.08s.01-.08,.05-.08c.37,0,.64-.02,.81-.07,.17-.05,.29-.14,.35-.27,.06-.13,.1-.34,.1-.62v-6.41c0-.28-.03-.48-.1-.61-.07-.13-.18-.22-.35-.27-.17-.05-.44-.08-.81-.08-.03,0-.05-.03-.05-.08s.01-.08,.05-.08h.76c.42,.03,.76,.04,1.03,.04,.29,0,.65,0,1.09-.03h.72s.03,.01,.03,.07-.01,.08-.03,.08c-.36,0-.63,.03-.8,.08-.18,.06-.29,.15-.35,.28-.06,.13-.09,.34-.09,.62v6.38c0,.29,.03,.49,.09,.62Z"/><path class="c" d="M97.74,86.23c0,.26,.03,.45,.08,.57,.05,.12,.16,.2,.31,.24s.4,.06,.74,.06h1.44c.6,0,1.09-.17,1.48-.51,.38-.34,.64-.8,.76-1.38,0-.03,.03-.04,.08-.03,.05,0,.08,.02,.08,.05-.09,.78-.13,1.44-.13,1.97,0,.07-.01,.13-.05,.16-.03,.03-.09,.05-.18,.05h-6.95s-.03-.03-.03-.08,.01-.08,.03-.08c.37,0,.64-.02,.81-.07,.17-.05,.28-.14,.34-.27s.09-.34,.09-.62v-6.41c0-.28-.03-.48-.09-.61s-.17-.22-.34-.27c-.17-.05-.44-.08-.81-.08-.02,0-.03-.03-.03-.08s.01-.08,.03-.08h.75c.42,.03,.76,.04,1.03,.04,.29,0,.64,0,1.06-.03h.73s.03,.01,.03,.07,0,.08-.03,.08c-.36,0-.63,.03-.8,.08s-.29,.14-.35,.28-.09,.34-.09,.62v6.34Z"/><path class="c" d="M109.93,81.26c.19,.27,.42,.49,.69,.68,.27,.18,.65,.41,1.14,.68,.51,.29,.91,.53,1.2,.73,.29,.2,.54,.46,.74,.76,.2,.3,.31,.67,.31,1.08,0,.45-.12,.86-.37,1.22-.24,.36-.6,.64-1.07,.85s-1.02,.31-1.66,.31c-.81,0-1.53-.17-2.16-.5-.05-.03-.09-.06-.11-.1s-.03-.09-.05-.17l-.16-1.94s.01-.06,.07-.07c.05,0,.09,0,.1,.04,.2,.68,.51,1.27,.94,1.75,.43,.48,1,.73,1.71,.73,.49,0,.9-.12,1.23-.36,.33-.24,.49-.63,.49-1.18,0-.42-.1-.77-.3-1.07-.2-.3-.44-.55-.73-.76-.28-.21-.67-.44-1.16-.71-.49-.29-.87-.52-1.14-.71-.27-.19-.5-.43-.69-.72-.19-.29-.28-.64-.28-1.03,0-.47,.13-.87,.4-1.2,.27-.33,.62-.57,1.06-.73,.44-.16,.9-.24,1.39-.24,.62,0,1.21,.11,1.78,.32,.15,.06,.22,.15,.22,.25l.09,1.66s-.03,.06-.08,.07c-.06,0-.09,0-.1-.04-.1-.49-.32-.95-.67-1.38-.35-.43-.85-.65-1.51-.65-.53,0-.93,.14-1.21,.43-.27,.29-.41,.65-.41,1.08,0,.35,.09,.66,.28,.93Z"/></g><path class="b" d="M2.65,58.53c47.12,9.4,96.19,9.71,143.75,3.16,6.85-.83,13.59-2.21,20.44-3.16-6.68,1.64-13.35,3.47-20.13,4.73-46.9,9-98.2,8.74-144.06-4.73h0Z"/></svg>