<?xml version="1.0" encoding="UTF-8"?><svg id="a" xmlns="http://www.w3.org/2000/svg" viewBox="0 0 134.09 80.24"><defs><style>.b{fill:#fff;}.c{fill:#b89b94;}</style></defs><g><path class="b" d="M29.27,7.19l-.47,3.38-.7,4.56c0,.13-.1,.19-.29,.19-.08,0-.17-.03-.26-.09-.1-.06-.15-.11-.15-.16,.16-2.21-.25-3.99-1.23-5.34-.97-1.35-2.36-2.03-4.15-2.03h-3.62c-1.21,0-2.09,.1-2.66,.31-.57,.21-.98,.58-1.26,1.13-.27,.54-.51,1.42-.7,2.63l-2.1,12.88h7.71c1.6,0,2.8-.33,3.62-1,.82-.67,1.36-1.83,1.64-3.5,0-.13,.12-.19,.35-.19,.08,0,.17,.03,.26,.09,.1,.06,.13,.14,.09,.22-.12,.92-.29,1.87-.53,2.88-.16,.62-.29,1.38-.41,2.25l-.29,1.94c-.12,1.29-.31,2.65-.58,4.06-.04,.17-.18,.24-.41,.22-.23-.02-.33-.11-.29-.28,.12-.62,.18-1.19,.18-1.69,0-1.25-.33-2.16-.99-2.72-.66-.56-1.68-.84-3.04-.84h-7.54l-2.4,14.31c-.12,.75-.18,1.38-.18,1.88,0,.87,.24,1.47,.73,1.78,.49,.31,1.39,.47,2.72,.47h4.85c1.71,0,3.39-.76,5.02-2.28,1.64-1.52,2.96-3.53,3.97-6.03,.08-.12,.22-.17,.44-.12,.21,.04,.28,.12,.2,.25-.7,2.42-1.32,5.23-1.87,8.44-.08,.38-.18,.62-.29,.75-.12,.12-.33,.19-.64,.19H.12c-.08,0-.12-.12-.12-.38s.04-.38,.12-.38c1.21,0,2.1-.1,2.69-.31,.58-.21,1.02-.6,1.32-1.19,.29-.58,.56-1.52,.79-2.81L9.64,11.69c.16-.71,.23-1.4,.23-2.06,0-.88-.25-1.47-.76-1.78-.51-.31-1.42-.47-2.75-.47-.12,0-.18-.12-.18-.38s.06-.38,.18-.38H28.92c.31,0,.43,.19,.35,.56Z"/><path class="b" d="M33.13,45.5c-.39-.5-.58-1.27-.58-2.31,0-.79,.12-1.81,.35-3.06L38.5,7.56c.12-.62,.18-1.15,.18-1.56,0-1.08-.39-1.62-1.17-1.62-.62,0-1.52,.31-2.69,.94h-.06c-.2,0-.32-.11-.38-.34-.06-.23-.01-.36,.15-.41L42.59,.38h.12c.16,0,.29,.06,.41,.19,.12,.13,.16,.23,.12,.31l-6.72,39.25c-.12,.62-.18,1.17-.18,1.62,0,1.21,.35,1.81,1.05,1.81,.39,0,.88-.23,1.46-.69,.58-.46,1.3-1.13,2.16-2,.08-.08,.16-.13,.23-.13,.12,0,.21,.07,.29,.22,.08,.15,.06,.28-.06,.41-1.32,1.67-2.5,2.9-3.53,3.69-1.03,.79-2.06,1.19-3.07,1.19-.78,0-1.36-.25-1.75-.75Z"/><path class="b" d="M47,43.91c-1.31-1.77-1.96-4.07-1.96-6.91,0-.92,.1-2.04,.29-3.38,.43-2.46,1.26-4.67,2.48-6.63,1.23-1.96,2.72-3.49,4.47-4.59,1.75-1.1,3.6-1.66,5.55-1.66,2.49,0,4.41,.87,5.76,2.59,1.34,1.73,2.02,4.01,2.02,6.84,0,1.08-.12,2.23-.35,3.44-.51,2.63-1.41,4.92-2.72,6.88-1.3,1.96-2.83,3.46-4.59,4.5-1.75,1.04-3.55,1.56-5.38,1.56-2.42,0-4.28-.88-5.58-2.66Zm11.69-1.22c1.19-1.54,2.02-3.65,2.48-6.31,.23-1.33,.35-2.65,.35-3.94,0-2.83-.48-5.24-1.43-7.22-.95-1.98-2.31-2.97-4.06-2.97-1.48,0-2.82,.77-4.03,2.31-1.21,1.54-2.05,3.67-2.51,6.38-.27,1.58-.41,2.98-.41,4.19,0,2.79,.5,5.14,1.49,7.03,.99,1.9,2.35,2.84,4.06,2.84,1.52,0,2.87-.77,4.06-2.31Z"/><path class="b" d="M86.35,21.94c.74,.63,1.11,1.35,1.11,2.19,0,.62-.2,1.18-.61,1.66-.41,.48-.93,.72-1.55,.72-.43,0-.78-.09-1.05-.28-.27-.19-.57-.47-.88-.84-.2-.21-.4-.41-.61-.59-.21-.19-.46-.28-.73-.28-.78,0-1.72,1.18-2.83,3.53-1.11,2.35-2.16,5.17-3.16,8.44-.99,3.27-1.72,6.16-2.19,8.66-.08,.33-.31,.59-.7,.78-.39,.19-.92,.28-1.58,.28-1.01,0-1.52-.15-1.52-.44,.04-.25,.16-.9,.38-1.94,.21-1.04,.38-1.96,.5-2.75l2.1-12.31c.16-.96,.23-1.83,.23-2.63,0-1.67-.43-2.5-1.29-2.5s-1.97,.79-3.45,2.38c-.04,.04-.1,.06-.18,.06-.12,0-.21-.07-.29-.22-.08-.15-.08-.26,0-.34,1.25-1.54,2.4-2.68,3.45-3.41,1.05-.73,2.08-1.09,3.1-1.09,.82,0,1.42,.27,1.81,.81,.39,.54,.58,1.46,.58,2.75,0,1-.12,2.29-.35,3.88l-1.23,7.31c1.25-4.29,2.62-7.82,4.12-10.59,1.5-2.77,2.99-4.16,4.47-4.16,.82,0,1.6,.31,2.34,.94Z"/><path class="b" d="M109.96,40.82c.12,0,.21,.07,.29,.22,.08,.15,.08,.26,0,.34-1.29,1.62-2.45,2.84-3.51,3.66-1.05,.81-2.07,1.22-3.04,1.22-.78,0-1.35-.25-1.72-.75-.37-.5-.55-1.29-.55-2.38,0-.67,.1-1.67,.29-3l.94-5.94c-1.68,3.79-3.6,6.79-5.79,9-2.18,2.21-4.3,3.31-6.37,3.31-1.17,0-2.07-.39-2.72-1.16-.64-.77-.96-1.95-.96-3.53,0-.38,.04-.98,.12-1.81,.39-2.87,1.43-5.82,3.13-8.84,1.69-3.02,3.69-5.51,5.99-7.47,2.3-1.96,4.46-2.94,6.48-2.94,1.64,0,2.96,.56,3.97,1.69,.74-.67,1.25-1.4,1.52-2.19,.08-.08,.15-.13,.23-.13,.12,0,.24,.03,.35,.09,.12,.06,.15,.11,.12,.16l-3.39,19.75c-.12,.62-.17,1.19-.17,1.69,0,1.17,.33,1.75,.99,1.75,.82,0,2.03-.9,3.62-2.69,.04-.04,.1-.06,.18-.06Zm-12.65-.06c1.46-1.46,2.76-3.29,3.91-5.5,1.15-2.21,1.92-4.33,2.31-6.38,.12-.58,.17-1.15,.17-1.69,0-1.21-.29-2.17-.88-2.88-.58-.71-1.42-1.06-2.51-1.06-1.33,0-2.65,.57-3.97,1.72-1.33,1.15-2.47,2.72-3.45,4.72-.97,2-1.64,4.25-1.99,6.75-.16,1.33-.23,2.21-.23,2.63,0,2.58,.82,3.88,2.45,3.88,1.32,0,2.72-.73,4.18-2.19Z"/><path class="b" d="M129.82,21.53c.74,.52,1.11,1.22,1.11,2.09,0,1.96-1.33,3.74-4,5.34-2.67,1.6-5.89,2.76-9.67,3.47-.16,1-.23,2.08-.23,3.25,0,2.54,.52,4.58,1.55,6.13,1.03,1.54,2.54,2.31,4.53,2.31,2.14,0,4.03-.69,5.67-2.06h.06c.12,0,.22,.06,.32,.19s.11,.25,.03,.38c-2.77,2.54-5.67,3.81-8.71,3.81-2.57,0-4.5-.85-5.78-2.56-1.28-1.71-1.93-3.92-1.93-6.63,0-.92,.1-1.96,.29-3.13,.39-2.17,1.24-4.28,2.54-6.34,1.3-2.06,2.93-3.75,4.88-5.06,1.95-1.31,4.01-1.97,6.19-1.97,1.36,0,2.42,.26,3.16,.78Zm-3.39,3.09c0-.71-.24-1.25-.73-1.62-.49-.38-1.08-.56-1.78-.56-1.6,0-2.96,.84-4.09,2.53-1.13,1.69-1.95,3.89-2.45,6.59,5.38-1.08,8.36-3.13,8.94-6.13,.08-.42,.12-.69,.12-.81ZM131.08,.31c.88-.21,1.64-.31,2.31-.31,.51,0,.74,.08,.7,.25l-8.94,15.88c-.04,.13-.17,.15-.38,.06-.21-.08-.28-.17-.2-.25l5.08-15c.08-.21,.55-.42,1.43-.62Z"/></g><g><path class="b" d="M51.9,72.18c0,.05-.01,.08-.04,.08-.32,0-.56,.1-.72,.31s-.23,.53-.23,.97v6.64s-.02,.04-.06,.05-.07,0-.08-.01l-5.52-7.07-.04-.05v5.51c0,.44,.07,.76,.22,.96s.38,.3,.7,.3c.02,0,.04,.02,.04,.08s-.01,.08-.04,.08c-.19,0-.34,0-.45-.01h-1.23c-.12,0-.29,.01-.51,.01-.02,0-.02-.03-.02-.08s0-.08,.02-.08c.34,0,.59-.1,.74-.3,.15-.2,.23-.52,.23-.96v-5.84c-.32-.34-.65-.51-.98-.51-.02,0-.04-.03-.04-.08s.01-.08,.04-.08h.44c.09,.02,.23,.02,.4,.02h.56c.06-.02,.15-.02,.25-.02,.06,0,.11,.01,.14,.04,.03,.03,.07,.1,.14,.2,.09,.15,.19,.29,.28,.42l4.48,5.81v-5.03c0-.44-.07-.76-.21-.97s-.38-.31-.7-.31c-.02,0-.02-.03-.02-.08s0-.08,.02-.08h.46c.25,.03,.45,.04,.6,.04s.35,0,.6-.02h.49s.04,.01,.04,.06Z"/><path class="b" d="M64.03,79.96c0,.05-.02,.08-.05,.08-.15,0-.38,0-.7-.03-.32-.02-.55-.02-.7-.02-.18,0-.41,0-.68,.02-.25,.02-.45,.03-.59,.03-.03,0-.05-.03-.05-.08s.02-.08,.05-.08c.28,0,.49-.03,.61-.08,.12-.05,.18-.15,.18-.3,0-.13-.06-.32-.17-.57l-1.02-2.28h-2.83l-.7,1.74c-.1,.25-.15,.49-.15,.7,0,.53,.38,.8,1.15,.8,.04,0,.06,.02,.06,.08s-.02,.08-.06,.08c-.14,0-.35,0-.62-.03-.3-.02-.56-.02-.78-.02-.2,0-.44,0-.72,.02-.24,.02-.44,.03-.6,.03-.04,0-.06-.03-.06-.08s.02-.08,.06-.08c.22,0,.41-.04,.56-.13,.15-.09,.3-.25,.44-.47,.14-.23,.3-.56,.47-1l2.5-6.26s.05-.04,.1-.04,.07,.01,.08,.04l2.82,6.29c.27,.62,.5,1.04,.69,1.25,.19,.22,.41,.33,.65,.33,.03,0,.05,.02,.05,.08Zm-5.83-3.57h2.61l-1.37-3.07-1.23,3.07Z"/><path class="b" d="M70.05,79.58c.05,.12,.14,.2,.27,.24,.13,.04,.35,.06,.64,.06,.02,0,.02,.02,.02,.08s0,.08-.02,.08c-.24,0-.44,0-.58-.01h-1.67c-.15,0-.35,.01-.6,.01-.02,0-.04-.03-.04-.08s.01-.08,.04-.08c.29,0,.51-.02,.64-.06,.13-.04,.23-.12,.28-.25,.05-.12,.08-.31,.08-.56v-5.87c0-.25-.03-.44-.08-.56-.05-.12-.14-.2-.28-.25-.13-.05-.35-.07-.64-.07-.02,0-.04-.03-.04-.08s.01-.08,.04-.08h.6c.33,.03,.6,.04,.82,.04,.23,0,.52,0,.87-.02h.57s.02,.01,.02,.06,0,.08-.02,.08c-.28,0-.5,.02-.63,.08-.14,.05-.23,.14-.28,.26-.05,.12-.07,.31-.07,.56v5.84c0,.26,.02,.45,.07,.57Z"/><path class="b" d="M77.33,78.95c0,.24,.02,.41,.07,.52,.04,.11,.13,.18,.25,.22s.32,.06,.59,.06h1.14c.47,0,.86-.15,1.17-.46,.3-.31,.5-.73,.6-1.26,0-.03,.02-.04,.07-.03,.04,0,.06,.02,.06,.04-.07,.72-.11,1.32-.11,1.8,0,.07-.01,.12-.04,.15-.02,.03-.07,.04-.14,.04h-5.5s-.02-.03-.02-.08,0-.08,.02-.08c.29,0,.51-.02,.64-.06,.13-.04,.23-.12,.27-.25s.07-.31,.07-.56v-5.87c0-.25-.02-.44-.07-.56s-.14-.2-.27-.25c-.13-.05-.35-.07-.64-.07-.02,0-.02-.03-.02-.08s0-.08,.02-.08h.59c.33,.03,.6,.04,.82,.04,.23,0,.51,0,.84-.02h.58s.02,.01,.02,.06,0,.08-.02,.08c-.28,0-.5,.02-.63,.07s-.23,.13-.28,.25-.07,.31-.07,.56v5.81Z"/><path class="b" d="M86.97,74.4c.15,.24,.33,.45,.55,.62,.21,.17,.51,.38,.9,.62,.4,.26,.72,.49,.95,.67,.23,.19,.42,.42,.59,.7,.16,.28,.24,.61,.24,.99,0,.41-.1,.79-.29,1.12-.19,.33-.48,.59-.85,.78s-.81,.29-1.32,.29c-.64,0-1.21-.15-1.71-.46-.04-.03-.07-.06-.08-.09s-.03-.08-.04-.15l-.13-1.78s0-.05,.05-.06c.04,0,.07,0,.08,.04,.16,.63,.41,1.16,.75,1.6,.34,.44,.79,.67,1.35,.67,.39,0,.71-.11,.97-.33,.26-.22,.39-.58,.39-1.08,0-.38-.08-.71-.24-.98-.16-.27-.35-.51-.58-.7-.22-.19-.53-.41-.92-.65-.39-.26-.69-.48-.9-.65-.21-.17-.39-.39-.54-.66-.15-.27-.23-.58-.23-.94,0-.43,.11-.8,.32-1.1,.21-.3,.49-.52,.84-.67,.35-.15,.71-.22,1.1-.22,.49,0,.96,.1,1.41,.29,.12,.06,.18,.14,.18,.23l.07,1.52s-.02,.06-.06,.06c-.04,0-.07,0-.08-.04-.08-.45-.26-.87-.53-1.27-.28-.4-.68-.6-1.2-.6-.42,0-.74,.13-.95,.39-.22,.26-.33,.59-.33,.99,0,.32,.07,.6,.23,.85Z"/></g><path class="c" d="M2.1,53.59c37.28,8.61,76.1,8.89,113.73,2.9,5.42-.76,10.75-2.03,16.17-2.9-5.29,1.5-10.56,3.17-15.92,4.33-37.11,8.24-77.7,8.01-113.98-4.33h0Z"/></svg>