<?xml version="1.0" encoding="UTF-8"?>
<svg id="Layer_1" data-name="Layer 1" xmlns="http://www.w3.org/2000/svg" viewBox="0 0 1920 1080">
  <defs>
    <style>
      .cls-1 {
        fill: #2c2826;
      }

      .cls-2 {
        fill: #b89b94;
      }
    </style>
  </defs>
  <path class="cls-1" d="M1062.24,393.06l-3.27,22.06-4.9,29.82c0,.82-.68,1.23-2.04,1.23-.55,0-1.16-.2-1.84-.61-.68-.41-1.02-.75-1.02-1.02,1.09-14.43-1.77-26.07-8.58-34.93-6.81-8.85-16.48-13.27-29-13.27h-25.33c-8.44,0-14.64.68-18.58,2.04-3.95,1.37-6.88,3.82-8.78,7.35-1.91,3.54-3.54,9.26-4.9,17.16l-14.71,84.15h53.92c11.16,0,19.61-2.17,25.33-6.54,5.72-4.35,9.53-11.98,11.44-22.88,0-.82.82-1.23,2.45-1.23.54,0,1.16.2,1.84.61.68.41.88.88.61,1.43-.82,5.99-2.04,12.25-3.68,18.79-1.09,4.08-2.04,8.99-2.86,14.7l-2.04,12.66c-.82,8.45-2.18,17.3-4.08,26.55-.27,1.09-1.23,1.57-2.86,1.43-1.64-.13-2.32-.74-2.04-1.84.82-4.08,1.23-7.76,1.23-11.03,0-8.17-2.32-14.09-6.95-17.77-4.63-3.68-11.71-5.51-21.24-5.51h-52.7l-16.75,93.54c-.82,4.9-1.23,8.99-1.23,12.26,0,5.72,1.7,9.6,5.11,11.64,3.4,2.04,9.73,3.06,18.99,3.06h33.91c11.98,0,23.69-4.97,35.13-14.91,11.44-9.94,20.69-23.08,27.78-39.42.54-.81,1.57-1.08,3.07-.81,1.49.27,1.97.81,1.43,1.64-4.9,15.8-9.26,34.18-13.07,55.15-.55,2.45-1.23,4.08-2.04,4.9-.82.81-2.32,1.22-4.49,1.22h-167.07c-.55,0-.81-.81-.81-2.45s.27-2.45.81-2.45c8.44,0,14.71-.67,18.79-2.04,4.09-1.36,7.15-3.94,9.19-7.76,2.04-3.81,3.88-9.94,5.51-18.38l33.09-189.13c1.09-4.63,1.63-9.12,1.63-13.48,0-5.72-1.77-9.6-5.31-11.64-3.54-2.04-9.95-3.07-19.2-3.07-.82,0-1.23-.81-1.23-2.45s.41-2.45,1.23-2.45h157.68c2.17,0,2.99,1.23,2.45,3.68Z"/>
  <path class="cls-2" d="M737.36,658.64c127.78,27.58,260.86,28.49,389.85,9.28,18.58-2.44,36.86-6.49,55.43-9.28-18.12,4.81-36.19,10.17-54.58,13.88-127.2,26.4-266.32,25.65-390.69-13.88h0Z"/>
</svg>